<svg xmlns="http://www.w3.org/2000/svg" viewBox="0 0 98.74 98.74"><defs><style>.cls-1{fill:#fff;}</style></defs><title>Asset 1</title><g id="Layer_2" data-name="Layer 2"><g id="Layer_2-2" data-name="Layer 2"><path class="cls-1" d="M27.91,29.23v4H15.46v-1l6.68-8.94a4.27,4.27,0,0,0,1-2.43,1.56,1.56,0,0,0-.43-1.18,1.59,1.59,0,0,0-1.2-.43,1.5,1.5,0,0,0-1.28.6,3,3,0,0,0-.46,1.86H15.64A6.51,6.51,0,0,1,17.23,17a6.13,6.13,0,0,1,4.56-1.6A6.13,6.13,0,0,1,26,16.77a4.84,4.84,0,0,1,1.56,3.77,5.83,5.83,0,0,1-.39,2.1,10.44,10.44,0,0,1-1.32,2.29l-3.14,4.3Z"/><path class="cls-1" d="M86.7,15.42v.27L81.05,33.17H78.94l-4.39-9.24L70,33.17H67.92L62.29,15.69v-.27h4.8l1.48,4.79,1.06,4.27L73.44,16h2l4,8.36,1-4.12,1.43-4.79Z"/><path class="cls-1" d="M24,68.31V85.89h-4.6V68.31Z"/><path class="cls-1" d="M82.09,68.33V86H80.24l-8.87-9,0,3.16V85.9H66.9V68.25h1.86l8.89,8.69-.08-3.11v-5.5Z"/><line class="cls-1" y1="49.37" x2="98.74" y2="49.37"/><rect class="cls-1" y="48.87" width="98.74" height="1"/><line class="cls-1" x1="49.37" x2="49.37" y2="98.74"/><rect class="cls-1" x="48.87" width="1" height="98.74"/></g></g></svg>